<?xml version="1.0" encoding="UTF-8" standalone="no"?>
<!-- Created with Inkscape (http://www.inkscape.org/) -->

<svg
   xmlns:dc="http://purl.org/dc/elements/1.1/"
   xmlns:cc="http://creativecommons.org/ns#"
   xmlns:rdf="http://www.w3.org/1999/02/22-rdf-syntax-ns#"
   xmlns:svg="http://www.w3.org/2000/svg"
   xmlns="http://www.w3.org/2000/svg"
   xmlns:xlink="http://www.w3.org/1999/xlink"
   xmlns:sodipodi="http://sodipodi.sourceforge.net/DTD/sodipodi-0.dtd"
   xmlns:inkscape="http://www.inkscape.org/namespaces/inkscape"
   width="210mm"
   height="297mm"
   id="svg2"
   version="1.1"
   inkscape:version="0.48.4 r9939"
   sodipodi:docname="Neues Dokument 1">
  <defs
     id="defs4" />
  <sodipodi:namedview
     id="base"
     pagecolor="#ffffff"
     bordercolor="#666666"
     borderopacity="1.0"
     inkscape:pageopacity="0.0"
     inkscape:pageshadow="2"
     inkscape:zoom="1.979899"
     inkscape:cx="310.8571"
     inkscape:cy="872.54167"
     inkscape:document-units="mm"
     inkscape:current-layer="layer1"
     showgrid="false"
     inkscape:window-width="1920"
     inkscape:window-height="1137"
     inkscape:window-x="-8"
     inkscape:window-y="-8"
     inkscape:window-maximized="1" />
  <metadata
     id="metadata7">
    <rdf:RDF>
      <cc:Work
         rdf:about="">
        <dc:format>image/svg+xml</dc:format>
        <dc:type
           rdf:resource="http://purl.org/dc/dcmitype/StillImage" />
        <dc:title></dc:title>
      </cc:Work>
    </rdf:RDF>
  </metadata>
  <g
     inkscape:label="Layer 1"
     inkscape:groupmode="layer"
     id="layer1">
    <image
       y="24.719326"
       x="11.428554"
       id="image2993"
       xlink:href="file:///C:/Users/Florian/shot_images/cover_08_ecl.jpg"
       height="221"
       width="320" />
    <rect
       style="fill:#ffffff;fill-opacity:1;stroke:#000000;stroke-width:0.70866144;stroke-linecap:square;stroke-linejoin:miter;stroke-miterlimit:4;stroke-opacity:1;stroke-dasharray:none;stroke-dashoffset:77.83041954"
       id="rect3022"
       width="320.72342"
       height="218.19293"
       x="10.606602"
       y="28.572578" />
    <path
       sodipodi:type="arc"
       style="fill:#333333;fill-opacity:1;stroke:#000000;stroke-width:0.70866143999999998;stroke-linecap:square;stroke-linejoin:miter;stroke-miterlimit:4;stroke-opacity:1;stroke-dasharray:none;stroke-dashoffset:77.83041953999999400"
       id="path3024"
       sodipodi:cx="169.45309"
       sodipodi:cy="283.13101"
       sodipodi:rx="135.10791"
       sodipodi:ry="81.822357"
       d="m 304.561,283.13101 a 135.10791,81.822357 0 1 1 -270.215816,0 135.10791,81.822357 0 1 1 270.215816,0 z"
       transform="translate(-10.101525,10.606602)" />
    <path
       sodipodi:type="arc"
       style="fill:#ffffff;stroke:#000000;stroke-width:0.70866144;stroke-linecap:square;stroke-linejoin:miter;stroke-miterlimit:4;stroke-opacity:1;stroke-dasharray:none;stroke-dashoffset:77.83041954"
       id="path3004"
       sodipodi:cx="158.34142"
       sodipodi:cy="115.44569"
       sodipodi:rx="87.125656"
       sodipodi:ry="110.61171"
       d="m 245.46707,115.44569 a 87.125656,110.61171 0 1 1 -174.251311,0 87.125656,110.61171 0 1 1 174.251311,0 z"
       transform="matrix(1.0173052,0,0,1.0250463,-3.7502847,10.493029)" />
    <path
       style="fill:#000000;stroke:#000000;stroke-width:1px;stroke-linecap:butt;stroke-linejoin:miter;stroke-opacity:1"
       d="m 203.04066,26.552272 -4.54568,16.162441 -17.1726,12.626907 -21.2132,13.637059 -15.65737,6.565992 -22.22335,5.050762 -23.233511,5.050763 -13.131983,5.050763 -4.04061,20.203051 -2.525381,18.18275 L 71.215754,117.97108 59.599,105.84925 46.467017,112.92031 37.375644,101.80864 43.941636,67.968527 51.51778,28.067501 69.700526,25.54212"
       id="path2996"
       inkscape:connector-curvature="0" />
    <path
       style="fill:#000000;stroke:#000000;stroke-width:1px;stroke-linecap:butt;stroke-linejoin:miter;stroke-opacity:1"
       d="m 201.02036,33.118264 19.69797,16.162441 4.54569,11.616754 7.57614,19.192898 5.55584,10.101526 -2.52538,15.152287 9.59645,0 4.04061,7.57614 7.07107,-17.172588 -6.56599,-44.951789 6.56599,14.647212 -1.51523,-18.182746 -14.64721,-24.748737 -38.3858,1.010153 z"
       id="path3006"
       inkscape:connector-curvature="0" />
    <path
       sodipodi:type="arc"
       style="fill:#000000;fill-opacity:1;stroke:#000000;stroke-width:0.70866144;stroke-linecap:square;stroke-linejoin:miter;stroke-miterlimit:4;stroke-opacity:1;stroke-dasharray:none;stroke-dashoffset:77.83041954"
       id="path3008"
       sodipodi:cx="137.1282"
       sodipodi:cy="112.66778"
       sodipodi:rx="25.506351"
       sodipodi:ry="10.859139"
       d="m 162.63456,112.66778 a 25.506351,10.859139 0 1 1 -51.01271,0 25.506351,10.859139 0 1 1 51.01271,0 z"
       transform="translate(-4.5456865,0)" />
    <path
       sodipodi:type="arc"
       style="fill:#000000;fill-opacity:1;stroke:#000000;stroke-width:0.70866144;stroke-linecap:square;stroke-linejoin:miter;stroke-miterlimit:4;stroke-opacity:1;stroke-dasharray:none;stroke-dashoffset:77.83041954"
       id="path3010"
       sodipodi:cx="205.31351"
       sodipodi:cy="115.69823"
       sodipodi:rx="24.496199"
       sodipodi:ry="10.859139"
       d="m 229.80971,115.69823 a 24.496199,10.859139 0 1 1 -48.9924,0 24.496199,10.859139 0 1 1 48.9924,0 z"
       transform="translate(-6.5659916,-2.0203051)" />
    <path
       style="fill:none;stroke:#000000;stroke-width:1px;stroke-linecap:butt;stroke-linejoin:miter;stroke-opacity:1"
       d="m 169.20055,167.97363 -3.53553,6.56599 -10.10153,-0.50508 -8.08122,-6.56599 11.61676,-32.32488 6.06091,-4.54569"
       id="path3012"
       inkscape:connector-curvature="0" />
    <path
       style="fill:none;stroke:#000000;stroke-width:1.58478606px;stroke-linecap:butt;stroke-linejoin:miter;stroke-opacity:1"
       d="m 123.531,197.56044 55.47868,11.53705"
       id="path3014"
       inkscape:connector-curvature="0" />
    <rect
       y="28.572578"
       x="10.606602"
       height="218.19293"
       width="320.72342"
       id="rect3026"
       style="fill:none;fill-opacity:1;stroke:#000000;stroke-width:0.70866143999999998;stroke-linecap:square;stroke-linejoin:miter;stroke-miterlimit:4;stroke-opacity:1;stroke-dasharray:none;stroke-dashoffset:77.83041953999999400" />
    <rect
       style="fill:none;stroke:#000000;stroke-width:0.86667788;stroke-linecap:square;stroke-linejoin:miter;stroke-miterlimit:4;stroke-opacity:1;stroke-dasharray:none;stroke-dashoffset:77.83041954"
       id="rect3028"
       width="392.23795"
       height="266.84534"
       x="10.68561"
       y="28.651587" />
  </g>
</svg>
